<svg xmlns="http://www.w3.org/2000/svg" width="24" height="24" viewBox="0 0 24 24" fill="none"><g id="WhatsApp"><path id="Oval" d="M12 24C18.6274 24 24 18.6274 24 12C24 5.37258 18.6274 0 12 0C5.37258 0 0 5.37258 0 12C0 18.6274 5.37258 24 12 24Z" fill="#25D366"></path><path id="Logo" fill-rule="evenodd" clip-rule="evenodd" d="M12.3957 18.6762H12.3928C11.1985 18.6757 10.0251 18.3761 8.98287 17.8076L5.2002 18.7999L6.2125 15.1023C5.58806 14.0202 5.25948 12.7926 5.26002 11.535C5.26159 7.60075 8.4626 4.3999 12.3957 4.3999C14.3045 4.40073 16.0961 5.14384 17.4433 6.49261C18.7905 7.84131 19.532 9.63407 19.5313 11.5407C19.5297 15.474 16.3299 18.6746 12.3957 18.6762ZM9.15813 16.5158L9.3747 16.6444C10.2853 17.1847 11.3291 17.4707 12.3933 17.4711H12.3957C15.6646 17.4711 18.3252 14.8105 18.3265 11.5402C18.3271 9.95551 17.7108 8.46544 16.591 7.3444C15.4713 6.22335 13.9822 5.60567 12.3981 5.60512C9.12666 5.60512 6.46608 8.26546 6.46478 11.5354C6.46432 12.6561 6.77788 13.7475 7.37156 14.6917L7.51258 14.9161L6.91344 17.1047L9.15813 16.5158ZM15.7464 13.0769C15.8708 13.137 15.9547 13.1776 15.9906 13.2375C16.0351 13.3118 16.0351 13.6688 15.8866 14.0853C15.738 14.5018 15.0257 14.8819 14.6831 14.9331C14.376 14.979 13.9873 14.9981 13.5602 14.8624C13.3012 14.7803 12.9691 14.6706 12.5438 14.4868C10.8723 13.7651 9.7427 12.1451 9.52922 11.8389C9.51427 11.8175 9.50381 11.8025 9.49797 11.7947L9.49653 11.7928C9.40218 11.6669 8.76995 10.8233 8.76995 9.95029C8.76995 9.12902 9.17337 8.69855 9.35907 8.50041C9.37179 8.48683 9.38349 8.47435 9.39397 8.4629C9.55739 8.2844 9.75056 8.23978 9.86942 8.23978C9.98826 8.23978 10.1073 8.24088 10.2111 8.24609C10.224 8.24674 10.2373 8.24666 10.2511 8.24658C10.355 8.24597 10.4845 8.24521 10.6123 8.55215C10.6614 8.67028 10.7334 8.84541 10.8093 9.03012C10.9627 9.40362 11.1322 9.81629 11.162 9.87601C11.2066 9.96525 11.2363 10.0693 11.1769 10.1884C11.1679 10.2062 11.1597 10.2231 11.1518 10.2392C11.1072 10.3303 11.0743 10.3973 10.9986 10.4858C10.9688 10.5206 10.938 10.5581 10.9072 10.5956C10.8459 10.6703 10.7845 10.745 10.7311 10.7982C10.6419 10.8871 10.549 10.9835 10.653 11.162C10.757 11.3405 11.1148 11.9244 11.6448 12.3971C12.2146 12.9054 12.7098 13.1201 12.9608 13.229C13.0098 13.2503 13.0495 13.2675 13.0786 13.2821C13.2569 13.3714 13.3609 13.3564 13.4649 13.2375C13.5689 13.1185 13.9106 12.7168 14.0294 12.5384C14.1483 12.3599 14.2672 12.3897 14.4306 12.4491C14.594 12.5087 15.4706 12.94 15.6489 13.0292C15.6837 13.0466 15.7162 13.0624 15.7464 13.0769Z" fill="#FDFDFD"></path></g></svg>