<?xml version="1.0" encoding="utf-8"?>
<!-- Generator: Adobe Illustrator 17.1.0, SVG Export Plug-In . SVG Version: 6.00 Build 0)  -->
<!DOCTYPE svg PUBLIC "-//W3C//DTD SVG 1.1//EN" "http://www.w3.org/Graphics/SVG/1.1/DTD/svg11.dtd">
<svg version="1.1" id="Layer_1" xmlns="http://www.w3.org/2000/svg" xmlns:xlink="http://www.w3.org/1999/xlink" x="0px" y="0px"
	 viewBox="0 0 2000 2000" enable-background="new 0 0 2000 2000" xml:space="preserve">
<g>
	<g>
		<path d="M1225.6,553.5c85-3,162.1,29.7,218.5,105.7c75,101.2,61.5,246-31,331.6c-11.2,10.4-15.6,20.5-15,35.3
			c1,24.3,0.3,48.6,0.2,72.9c0,9.2-0.9,18.1-10.9,22.4c-10.1,4.4-17-1.2-23.5-7.7c-16-15.9-32.6-31.2-47.6-48
			c-9.1-10.3-18.1-11.2-31-9.5c-68.8,9.1-137,10.5-201.8-21c-101.8-49.6-157.3-158.8-138.5-273.1
			c17.3-104.6,106.1-189.7,213.6-205.2C1178.2,553.9,1197.6,554.2,1225.6,553.5z M1358,1061.1c1.8-1.2,3.7-2.3,5.5-3.5
			c0-12.3,1.1-24.7-0.2-36.8c-2.5-22.5,5.7-37.7,23.1-53.3c113.3-100.9,86-288.1-50.2-355.9c-47.1-23.4-97.1-23.7-147.6-22.3
			c-95.3,2.5-179.8,68.2-204.4,158.9c-25.8,95,13,194.6,95.9,245.1c67.8,41.4,141.1,38.7,215.3,24.9c13.3-2.5,22.9-1.2,31.7,8.9
			C1337.1,1038.7,1347.7,1049.8,1358,1061.1z"/>
		<path d="M888.7,1384.8c6.5-7.5,4.7-13,4.8-18c0.6-28.9,2.4-30.8,32.1-30.8c53.9,0,107.9-1.5,161.8,0.4
			c57.4,2,103.8-37.8,99.9-100.4c-1.9-30.7-0.3-61.6-0.3-92.4c0-4.1-0.2-8.3,0.1-12.4c0.9-10.6,5.5-18.6,17.2-18.7
			c12.6-0.1,17.8,8,17.9,19.6c0.1,42.1,1.4,84.2-0.6,126.2c-2.8,57.9-50.4,107.3-108.5,110.5c-55,3.1-110.2,2-165.3,1.4
			c-15.5-0.2-21.6,3.7-19.8,19.7c1.3,11.1,0.1,22.5,0.2,33.8c0.1,9.4-1.3,18-11.5,21.8c-9.3,3.5-15.9-1.4-22.1-7.5
			c-19.3-19.2-38.9-38.2-57.8-57.8c-6.7-6.9-13.7-10-23.4-9.8c-28.4,0.5-56.9,0.5-85.3,0.1c-78.2-1-128.5-52-128.6-130
			c-0.1-84.2-0.1-168.3,0-252.5c0.1-76.2,52.1-128,128.6-128.2c53.9-0.1,107.9,0.1,161.8-0.1c12.9,0,25.5,1.8,25.5,17.5
			c0,15.7-12.8,17.7-25.6,17.7c-53.9-0.1-107.9-0.2-161.8,0c-57.3,0.2-93.1,36-93.2,93.2c-0.1,84.7-0.1,169.5,0,254.2
			c0.1,56.7,36.6,93.1,93.4,93.5c32,0.2,64,0.5,96-0.2c12.7-0.2,22.4,2.5,30.8,13.1C865.1,1361.6,877.2,1372.7,888.7,1384.8z"/>
		<path d="M893,1098.2c56.3,0,112.6,0,168.8,0c4.1,0,8.3-0.1,12.4,0.1c10.7,0.4,19.4,4.7,19.1,16.4c-0.3,11.6-9.3,15.4-20,15.6
			c-3,0-5.9,0-8.9,0c-114.3,0-228.7,0-343,0c-3,0-5.9,0-8.9,0c-10.6-0.1-19.8-4-20-15.5c-0.2-12.7,9.6-16.4,20.8-16.4
			C773.3,1098.2,833.2,1098.2,893,1098.2z"/>
		<path d="M858.1,1226.3c-45.6,0-91.2,0-136.8,0c-5.3,0-10.8,0.3-15.9-0.9c-7.5-1.7-12.8-6.8-13-14.9c-0.1-8.1,5.1-13.3,12.5-15.2
			c5.1-1.3,10.6-1,15.9-1c92.4,0,184.8,0,277.2,0c2.4,0,4.7,0,7.1,0c11.3,0.2,21,3.9,20.6,16.7c-0.3,11.6-9.6,15.3-20.2,15.3
			c-19.5,0-39.1,0-58.6,0C917.3,1226.3,887.7,1226.3,858.1,1226.3z"/>
		<path d="M839.8,998.6c39.7,0,79.4,0.1,119,0c12.1,0,24.5,1.6,24.1,16.6c-0.3,13.7-12,15.5-23.5,15.5c-81.1-0.1-162.3-0.1-243.4,0
			c-11.6,0-23.2-2-23.3-15.7c-0.1-15,12.4-16.4,24.4-16.4C758,998.6,798.9,998.6,839.8,998.6z"/>
		<path d="M1077.2,1226.1c-9.2-1.8-15.3-7-14.7-16.7c0.6-9.4,6.8-15.3,16.3-14.8c9.4,0.5,15.3,6.8,14.8,16.3
			C1093,1220.6,1086.7,1225.4,1077.2,1226.1z"/>
		<path d="M1204.5,837.1c-4.2-24.7,4.9-43.4,33.8-52.4c17.9-5.6,26.2-25.7,22.2-43.7c-3.8-17.1-19.4-30-36.9-30.6
			c-18.3-0.7-34.8,11.5-39.5,29.5c-0.9,3.4-0.7,7.1-1.4,10.5c-2.2,10.6-8.3,17.7-19.6,16.2c-11-1.5-15.5-9.4-15.5-20.4
			c0-41.7,42.8-77.4,85.1-70.8c33.5,5.2,59.3,31.7,63.7,65.2c4.1,31.7-13,63.4-43.4,76.4c-10.6,4.5-14.5,9.8-13.3,20.8
			c0.9,8.2,0.6,16.6-0.1,24.9c-0.8,10.9-6.8,18.1-18.1,17.9c-10.3-0.2-16.1-7.2-16.9-17.2C1204,855.8,1204.5,848,1204.5,837.1z"/>
		<path d="M1239.8,932.6c-1.2,9.4-6.2,15.7-15.8,15.7c-9.5,0.1-15.6-6-15.7-15.5c-0.1-9.5,5.9-15.6,15.5-15.7
			C1233.3,917,1238.4,923.2,1239.8,932.6z"/>
	</g>
	<circle fill="none" stroke="#000000" stroke-width="33" stroke-miterlimit="10" cx="1045.9" cy="1000" r="736"/>
</g>
</svg>
