<svg width="52" height="52" viewBox="0 0 52 52" fill="none" xmlns="http://www.w3.org/2000/svg">
<g clip-path="url(#clip0_47_860)">
<path d="M36.4298 -0.00611685C41.3789 -0.180739 45.8681 1.72264 49.1519 6.1464C53.5188 12.037 52.7327 20.4654 47.347 25.448C46.6948 26.0533 46.4387 26.6412 46.4736 27.5027C46.5318 28.9171 46.4911 30.3316 46.4852 31.746C46.4852 32.2815 46.4328 32.7995 45.8506 33.0498C45.2625 33.3059 44.8608 32.98 44.4823 32.6016C43.5507 31.6761 42.5842 30.7856 41.7108 29.8077C41.181 29.2081 40.657 29.1558 39.9059 29.2547C35.9 29.7844 31.9291 29.8659 28.1561 28.0324C22.2289 25.1453 18.9974 18.789 20.092 12.1359C21.0993 6.04745 26.2696 1.094 32.5288 0.19179C33.67 0.0171675 34.7996 0.0346283 36.4298 -0.00611685ZM44.1388 29.5399C44.2436 29.4701 44.3542 29.4061 44.459 29.3362C44.459 28.6203 44.5231 27.8985 44.4474 27.1942C44.3018 25.8845 44.7793 24.9998 45.7924 24.0917C52.3892 18.2186 50.7997 7.32219 42.8695 3.37573C40.1271 2.01368 37.2159 1.99622 34.2755 2.07771C28.7267 2.22322 23.8067 6.04745 22.3744 11.3269C20.8722 16.8566 23.1313 22.654 27.9582 25.5935C31.9058 28.0033 36.1737 27.8461 40.4939 27.0428C41.2683 26.8973 41.8273 26.973 42.3396 27.5609C42.9219 28.2361 43.5391 28.8822 44.1388 29.5399Z" fill="white"/>
<path d="M16.8146 48.3816C17.1931 47.945 17.0883 47.6249 17.0941 47.3338C17.129 45.6516 17.2338 45.5411 18.9631 45.5411C22.1014 45.5411 25.2455 45.4537 28.3838 45.5643C31.7259 45.6808 34.4276 43.3641 34.2005 39.7203C34.0899 37.9334 34.183 36.1347 34.183 34.342C34.183 34.1033 34.1714 33.8588 34.1888 33.6202C34.2412 33.0032 34.5091 32.5375 35.1903 32.5317C35.9239 32.5259 36.2267 32.9974 36.2325 33.6726C36.2383 36.1231 36.314 38.5736 36.1976 41.0183C36.0346 44.3885 33.2631 47.264 29.8802 47.4503C26.6779 47.6307 23.4639 47.5667 20.2557 47.5317C19.3532 47.5201 18.998 47.7471 19.1028 48.6784C19.1785 49.3245 19.1087 49.9881 19.1145 50.6458C19.1203 51.193 19.0388 51.6936 18.4449 51.9148C17.9034 52.1185 17.5191 51.8333 17.1581 51.4782C16.0344 50.3606 14.8932 49.2547 13.7928 48.1138C13.4026 47.7122 12.9951 47.5317 12.4303 47.5434C10.7767 47.5725 9.11731 47.5725 7.46373 47.5492C2.91057 47.491 -0.018131 44.5224 -0.0239535 39.9823C-0.0297759 35.0812 -0.0297759 30.186 -0.0239535 25.2849C-0.018131 20.8495 3.00955 17.8344 7.46373 17.8227C10.602 17.8169 13.7462 17.8285 16.8845 17.8169C17.6356 17.8169 18.3692 17.9217 18.3692 18.8355C18.3692 19.7494 17.6239 19.8658 16.8787 19.8658C13.7403 19.86 10.5962 19.8542 7.45791 19.8658C4.12164 19.8774 2.0372 21.9613 2.03138 25.2907C2.02555 30.2209 2.02555 35.1569 2.03138 40.087C2.0372 43.3874 4.1624 45.5061 7.46956 45.5294C9.33275 45.5411 11.1959 45.5585 13.0591 45.5178C13.7986 45.5061 14.3634 45.6633 14.8524 46.2803C15.4405 47.0312 16.145 47.6773 16.8146 48.3816Z" fill="white"/>
<path d="M17.0648 31.6992C20.3429 31.6992 23.6209 31.6992 26.8932 31.6992C27.1319 31.6992 27.3764 31.6934 27.6151 31.705C28.2381 31.7283 28.7447 31.9787 28.7272 32.6599C28.7098 33.3353 28.1857 33.5566 27.5627 33.5682C27.3881 33.5682 27.2192 33.5682 27.0445 33.5682C20.3895 33.5682 13.7286 33.5682 7.07349 33.5682C6.89882 33.5682 6.72997 33.5682 6.55529 33.5682C5.93811 33.5624 5.40245 33.3353 5.3908 32.6657C5.37916 31.9263 5.94976 31.7109 6.60187 31.7109C10.0953 31.6992 13.583 31.6992 17.0648 31.6992Z" fill="white"/>
<path d="M15.0327 39.1564C12.3776 39.1564 9.72258 39.1564 7.06754 39.1564C6.75895 39.1564 6.43871 39.1739 6.14177 39.104C5.70508 39.005 5.39649 38.7081 5.38485 38.2365C5.37903 37.7649 5.68179 37.4621 6.11266 37.3515C6.4096 37.2758 6.72983 37.2932 7.03843 37.2932C12.4184 37.2932 17.7983 37.2932 23.1783 37.2932C23.318 37.2932 23.4519 37.2932 23.5917 37.2932C24.2496 37.3049 24.8144 37.5203 24.7911 38.2656C24.7736 38.941 24.2322 39.1564 23.615 39.1564C22.4796 39.1564 21.3384 39.1564 20.203 39.1564C18.4796 39.1564 16.7561 39.1564 15.0327 39.1564Z" fill="white"/>
<path d="M13.9672 25.9019C16.2787 25.9019 18.5903 25.9077 20.896 25.9019C21.6005 25.9019 22.3225 25.995 22.2992 26.8684C22.2817 27.6661 21.6005 27.7709 20.9309 27.7709C16.2089 27.765 11.481 27.765 6.75901 27.7709C6.08361 27.7709 5.4082 27.6544 5.40238 26.8567C5.39656 25.9834 6.12436 25.9019 6.82306 25.9019C9.20444 25.9019 11.5858 25.9019 13.9672 25.9019Z" fill="white"/>
<path d="M27.7899 39.1449C27.2542 39.0401 26.8991 38.7373 26.934 38.1725C26.9689 37.6252 27.3299 37.2817 27.8831 37.3108C28.4304 37.3399 28.7739 37.7067 28.7448 38.2599C28.7099 38.8246 28.343 39.1041 27.7899 39.1449Z" fill="white"/>
<path d="M35.2017 16.5014C34.9571 15.0636 35.487 13.9752 37.1697 13.4513C38.2119 13.1253 38.6951 11.9554 38.4622 10.9076C38.241 9.91228 37.3327 9.16141 36.3137 9.12648C35.2482 9.08574 34.2875 9.79587 34.0139 10.8436C33.9615 11.0415 33.9731 11.2569 33.9324 11.4548C33.8043 12.0718 33.4491 12.485 32.7912 12.3977C32.1507 12.3104 31.8887 11.8506 31.8887 11.2103C31.8887 8.78306 34.3807 6.70506 36.8436 7.08923C38.7941 7.3919 40.2963 8.9344 40.5525 10.8843C40.7912 12.7295 39.7956 14.5747 38.0255 15.3314C37.4084 15.5933 37.1813 15.9018 37.2512 16.5421C37.3036 17.0194 37.2861 17.5083 37.2453 17.9915C37.1988 18.6259 36.8494 19.045 36.1915 19.0334C35.5918 19.0217 35.2541 18.6143 35.2075 18.0322C35.1725 17.5898 35.2017 17.1358 35.2017 16.5014Z" fill="white"/>
<path d="M37.257 22.0605C37.1871 22.6078 36.896 22.9746 36.337 22.9746C35.7839 22.9805 35.4287 22.6253 35.4229 22.0722C35.4171 21.519 35.7664 21.1639 36.3254 21.158C36.8785 21.1522 37.1755 21.5132 37.257 22.0605Z" fill="white"/>
</g>
<defs>
<clipPath id="clip0_47_860">
<rect width="52" height="52" fill="white"/>
</clipPath>
</defs>
</svg>
